<svg xmlns="http://www.w3.org/2000/svg" xmlns:xlink="http://www.w3.org/1999/xlink" width="72.067" height="70" viewBox="0 0 72.067 70">
  <defs>
    <clipPath id="clip-path">
      <rect id="長方形_27956" data-name="長方形 27956" width="72.067" height="70" fill="none"/>
    </clipPath>
  </defs>
  <g id="グループ_24032" data-name="グループ 24032" transform="translate(0 0)">
    <g id="グループ_24031" data-name="グループ 24031" transform="translate(0 0)" clip-path="url(#clip-path)">
      <path id="パス_66956" data-name="パス 66956" d="M16.709,57.728h3.552v4.7a.238.238,0,0,1-.244.244H19.46v1.485h1.276a1.159,1.159,0,0,0,.847-.308,1.091,1.091,0,0,0,.313-.817v-9.2H16.709Zm1.636-2.911h1.916v.511H18.345Zm0,1.392h1.916v.511H18.345Z" transform="translate(1.795 5.784)" fill="#fff"/>
      <path id="パス_66957" data-name="パス 66957" d="M13.745,59.116h.869v.824h-.869v1.346h.823a1,1,0,0,1-.823.846v1.6a2.533,2.533,0,0,0,1.728-.777,2.868,2.868,0,0,0,.65-1.67h1v2.447h1.612V61.285h.742V59.94h-.742v-.824h.742V57.759h-5.73Zm2.412,0h.962v.824h-.962Z" transform="translate(1.477 6.206)" fill="#fff"/>
      <path id="パス_66958" data-name="パス 66958" d="M16.523,53.831h-5.2V64.155H12.97V57.728h3.553Zm-1.636,2.888H12.971v-.511h1.916Zm0-1.392H12.971v-.511h1.916Z" transform="translate(1.217 5.784)" fill="#fff"/>
      <path id="パス_66959" data-name="パス 66959" d="M22.87,57.776l3.336,1.045V57.094l-3.336-1Z" transform="translate(2.457 6.027)" fill="#fff"/>
      <path id="パス_66960" data-name="パス 66960" d="M30.782,58.611h2.575V57.485H30.782v-.441h2.575V53.832H26.5v3.213h2.575v.441H26.5v1.125h2.575V59.1H26.224v1.125h1.183c.016.047.042.132.082.255.016.054.039.183.069.383H26.224v1.125h2.853v.5H26.5v1.1h2.575v.569h1.705v-.569h2.575v-1.1H30.782v-.5h2.854V60.861H32.452l.152-.638h1.032V59.1H30.782Zm.591-3.723h.638V55.92h-.638ZM28.5,55.92h-.673V54.887H28.5Zm1.09-1.032h.672V55.92h-.672Zm1.462,5.336-.174.638h-1.8c-.016-.085-.039-.185-.069-.3s-.059-.228-.082-.337Z" transform="translate(2.818 5.784)" fill="#fff"/>
      <path id="パス_66961" data-name="パス 66961" d="M22.87,55.367,26.205,56.4V54.7L22.87,53.685Z" transform="translate(2.457 5.768)" fill="#fff"/>
      <path id="パス_66962" data-name="パス 66962" d="M44.86,53.968H34.6v1.96h8.212s.105,2.132-3.2,2.132H37.657V58.9a3.3,3.3,0,0,1-.684,2.145,2.9,2.9,0,0,1-2.378.987v1.995a4.879,4.879,0,0,0,3.625-1.439,4.781,4.781,0,0,0,1.311-2.5C44.954,59.934,44.86,56,44.86,56Z" transform="translate(3.717 5.799)" fill="#fff"/>
      <path id="パス_66963" data-name="パス 66963" d="M52.488,61.135a1.377,1.377,0,0,1-1.241.824h-.487V53.873H48.776V63.93h2.065a3.7,3.7,0,0,0,3.114-1.317,6.377,6.377,0,0,0,1.027-3.96v-.267H53a5.853,5.853,0,0,1-.511,2.749" transform="translate(5.241 5.788)" fill="#fff"/>
      <path id="パス_66964" data-name="パス 66964" d="M48.006,53.884H46.033v5.5a7.712,7.712,0,0,1-1.746,4.582h2.126a6.673,6.673,0,0,0,1.593-4.377Z" transform="translate(4.759 5.79)" fill="#fff"/>
      <path id="パス_66965" data-name="パス 66965" d="M2.443,53.759H1.461l-.033.249H0v.767H1.188a2.561,2.561,0,0,1-.508.719,2.019,2.019,0,0,1-.68.446v1.166a2.711,2.711,0,0,0,.311-.138c.1-.052.159-.083.177-.094v1.9h.873v-.91H3.954v.078c0,.182-.078.272-.234.272H3.281v.56h.805a.64.64,0,0,0,.733-.715V55.136H2.082l.14-.36H5.037v-.767H2.415Zm1.511,3.464H1.361V56.84H3.954Zm0-1.41V56.2l-2.593-.006.122-.138a2.007,2.007,0,0,0,.188-.239Z" transform="translate(0 5.776)" fill="#fff"/>
      <path id="パス_66966" data-name="パス 66966" d="M6.846,58.77c.5,0,.888-.011,1.175-.037a1.789,1.789,0,0,0,.636-.141v-.656a1.986,1.986,0,0,0,.538.533,2.074,2.074,0,0,0,.755.3v-.9a1.3,1.3,0,0,1-.461-.188l.5-.8H9.317l-.221.365a1.7,1.7,0,0,1-.217-.577h.939V53.829H7.1V57.96H6.846Zm1.089-4.242h1.05V54.9H7.935Zm0,1.071h1.05v.367H7.935Zm0,1.072H8.2a3.349,3.349,0,0,0,.133.584,2.687,2.687,0,0,0,.234.533,2.4,2.4,0,0,1-.628.127Z" transform="translate(0.736 5.784)" fill="#fff"/>
      <path id="パス_66967" data-name="パス 66967" d="M5.975,58.188h.133a.977.977,0,0,0,.689-.25,1,1,0,0,0,.295-.761v-.455a1.833,1.833,0,0,0-.064-.511,1.277,1.277,0,0,0-.2-.405l.189-1.2v-.772H5.192V58.77h.783Zm0-3.587h.284l-.167,1.266a1.348,1.348,0,0,1,.169.4,2.024,2.024,0,0,1,.048.463v.278a.392.392,0,0,1-.078.261.327.327,0,0,1-.256.089Z" transform="translate(0.558 5.784)" fill="#fff"/>
      <path id="パス_66968" data-name="パス 66968" d="M3.06,58.676H1.977a1.91,1.91,0,0,1-.775.686A3.46,3.46,0,0,1,0,59.72v.872l.422-.083V61H4.63v-.483c.079.018.142.032.189.041s.12.022.216.037V59.72a3.4,3.4,0,0,1-1.2-.355,1.921,1.921,0,0,1-.776-.689M1.216,60.264a3.931,3.931,0,0,0,.728-.389,3.19,3.19,0,0,0,.577-.5,3.353,3.353,0,0,0,1.294.888Z" transform="translate(0 6.305)" fill="#fff"/>
      <path id="パス_66969" data-name="パス 66969" d="M0,61.922H.761l-.295.633H0v.816H.772q1.344,0,1.982-.048A4.724,4.724,0,0,0,3.909,63.1l.15.322h.978l-.7-1.5H3.364l.212.455a7.026,7.026,0,0,1-.919.127c-.331.027-.711.039-1.141.039l.295-.627H5.037v-.739H0Z" transform="translate(0 6.574)" fill="#fff"/>
      <path id="パス_66970" data-name="パス 66970" d="M7.068,60.539a2.813,2.813,0,0,0,.169-.6v-.733H6.643v-.533H5.822v.533H5.167V60H6.389a2.029,2.029,0,0,1-.431.914,2.108,2.108,0,0,1-.791.625v1a3.24,3.24,0,0,0,.655-.383v1.544h.822V62l.705.611v-.972l-.6-.477a3.691,3.691,0,0,0,.319-.619" transform="translate(0.555 6.305)" fill="#fff"/>
      <path id="パス_66971" data-name="パス 66971" d="M9.007,60.808h.872v-.9H9.007V58.676H8.13v1.233H7.27v.9h.86v1.938H7.147v.888H9.99v-.888H9.007Z" transform="translate(0.768 6.305)" fill="#fff"/>
      <path id="パス_66972" data-name="パス 66972" d="M55.773,60.608v1.949q3.643,0,5.916.162a37.2,37.2,0,0,1,4.384.569v-2.03a34.088,34.088,0,0,0-4.345-.511q-2.384-.14-5.956-.14" transform="translate(5.993 6.512)" fill="#fff"/>
      <path id="パス_66973" data-name="パス 66973" d="M65.369,57.848a35.4,35.4,0,0,0-3.7-.4q-2.166-.126-5.318-.138v1.949c2.135.009,3.9.062,5.277.161a37.274,37.274,0,0,1,3.743.466Z" transform="translate(6.055 6.158)" fill="#fff"/>
      <path id="パス_66974" data-name="パス 66974" d="M61.729,54.215q-2.384-.14-5.956-.14v1.949q3.641,0,5.915.163a36.99,36.99,0,0,1,4.386.568v-2.03a34.287,34.287,0,0,0-4.345-.511" transform="translate(5.993 5.81)" fill="#fff"/>
      <path id="パス_66975" data-name="パス 66975" d="M22.87,61.621v1.973c3.308-.7,3.331-4.547,3.331-4.547h-1.83a2.627,2.627,0,0,1-1.5,2.574" transform="translate(2.457 6.344)" fill="#fff"/>
      <path id="パス_66976" data-name="パス 66976" d="M15.886,25.155A17.749,17.749,0,0,0,33.225,46.893c.565,0,1.122-.032,1.673-.084a28.432,28.432,0,0,1-9.11-5.277,31.177,31.177,0,0,1-9.9-16.377" transform="translate(1.658 2.703)" fill="#fff"/>
      <path id="パス_66977" data-name="パス 66977" d="M46.461,29.246a41.722,41.722,0,0,1-11.628,1.722,31.409,31.409,0,0,1-11.241-1.94c5.8,7.027,15.73,8.99,21.073,8a13.01,13.01,0,0,0,4.825-1.874,17.771,17.771,0,0,0-20.6-22.166A28.863,28.863,0,0,0,28,23.419c7.108,4.219,18.221,4.738,18.334,4.742,0,0,1.533.134,2.807.22,0,0-1.72.6-2.678.865" transform="translate(2.535 1.359)" fill="#fff"/>
      <path id="パス_66978" data-name="パス 66978" d="M21.743,16.117a17.826,17.826,0,0,0-1.981,1.832,19.894,19.894,0,0,0,1.382,5.943,22.352,22.352,0,0,1,.6-7.774" transform="translate(2.124 1.731)" fill="#fff"/>
      <path id="パス_66979" data-name="パス 66979" d="M27.721,25.116S25.455,12,36.426,0c0,0-18.867,10.6-14.316,29.005,0,0,9.454,5.407,24.433,1.069,0,0-11.521-.489-18.821-4.958" transform="translate(2.3 0)" fill="#fff"/>
      <path id="パス_66980" data-name="パス 66980" d="M60.8,18.5A28.228,28.228,0,0,0,43.741,5.983a31.922,31.922,0,0,1,8.89,8.962c6.46,9.823,5.217,21.439-6.012,23.515-6.357,1.174-17.455-1.638-22.89-9.932-3.595-5.485-4.714-13.366-.351-24.076A26.476,26.476,0,0,0,6.354,28.77c-.7,18.981,19.712,22.474,19.712,22.474A21.516,21.516,0,0,1,16.572,19c-.663,18.654,15.38,33.939,33.168,30.568C66.067,46.471,67.069,28.934,60.8,18.5" transform="translate(0.681 0.478)" fill="#fff"/>
    </g>
  </g>
</svg>
