<?xml version="1.0" encoding="utf-8"?>
<!-- Generator: Adobe Illustrator 26.5.0, SVG Export Plug-In . SVG Version: 6.00 Build 0)  -->
<svg version="1.1" id="レイヤー_1" xmlns="http://www.w3.org/2000/svg" xmlns:xlink="http://www.w3.org/1999/xlink" x="0px"
	 y="0px" viewBox="0 0 140 81" style="enable-background:new 0 0 140 81;" xml:space="preserve">
<style type="text/css">
	.st0{fill:#00A73C;}
	.st1{fill:#231815;}
	.st2{fill:#FFFFFF;}
</style>
<g>
	<g>
		<g>
			<g>
				<g>
					<rect y="0.449" class="st0" width="121.213" height="79.109"/>
				</g>
			</g>
		</g>
		<g>
			<g>
				<g>
					<path class="st1" d="M124.851,72.973c0,4.175,3.391,7.578,7.571,7.578c4.176,0,7.578-3.403,7.578-7.578
						c0-4.178-3.402-7.572-7.578-7.572C128.241,65.401,124.851,68.795,124.851,72.973 M125.727,72.976
						c0-3.694,3.003-6.701,6.694-6.701c3.687,0,6.698,3.007,6.698,6.701c0,3.686-3.003,6.693-6.698,6.693
						C128.73,79.669,125.727,76.662,125.727,72.976z"/>
				</g>
			</g>
		</g>
		<path class="st1" d="M136.109,77.876h-1.454l-2.939-4.549h-1.29v4.549h-1.165V67.868h2.833c0.949,0,1.701,0.228,2.252,0.691
			c0.552,0.459,0.828,1.102,0.828,1.927c0,0.609-0.2,1.155-0.601,1.631c-0.405,0.47-0.961,0.793-1.663,0.966L136.109,77.876
			 M130.425,72.316h1.468c0.616,0,1.117-0.167,1.501-0.501c0.38-0.337,0.573-0.752,0.573-1.261c0-1.117-0.682-1.673-2.043-1.673
			h-1.499V72.316z"/>
	</g>
	<g>
		<g>
			<g>
				<g>
					<g>
						<g>
							<g>
								<path class="st2" d="M30.457,61.81c-6.648,0-14.904-5.081-14.904-15.568c0-8.138,8.059-14.638,14.904-18.527
									c6.841,3.889,14.901,10.389,14.901,18.527C45.358,56.729,37.107,61.81,30.457,61.81 M76.126,46.066
									c0-8.14,8.057-14.644,14.9-18.53c6.846,3.886,14.899,10.39,14.899,18.53c0,10.482-8.249,15.565-14.899,15.565
									C84.377,61.632,76.126,56.548,76.126,46.066 M121.197,12.76c-12.317,0-23.231,3.071-30.643,6.924
									c-7.413-3.853-17.651-6.924-29.963-6.924c-12.318,0-22.553,3.071-29.965,6.924C23.215,15.83,12.316,12.76,0.004,12.76v6.927
									c7.278,0,16.112,1.361,23.047,4.373C15.562,29.068,8.152,36.657,8.152,46.236c0,12.661,10.781,22.333,22.474,22.333
									c11.692,0,21.949-9.672,21.949-22.333c0-9.58-6.881-17.169-14.373-22.177c6.932-3.012,15.108-4.373,22.39-4.373
									c7.281,0,15.455,1.361,22.388,4.373c-7.488,5.008-14.374,12.597-14.374,22.177c0,12.661,10.259,22.333,21.949,22.333
									c11.693,0,22.308-9.672,22.308-22.333c0-9.58-7.242-17.169-14.733-22.177c6.936-3.012,15.788-4.373,23.069-4.373V12.76z"/>
							</g>
						</g>
					</g>
				</g>
			</g>
		</g>
	</g>
</g>
</svg>
