<?xml version="1.0" encoding="utf-8"?>
<!-- Generator: Adobe Illustrator 26.0.2, SVG Export Plug-In . SVG Version: 6.00 Build 0)  -->
<svg version="1.1" id="レイヤー_1" xmlns="http://www.w3.org/2000/svg" xmlns:xlink="http://www.w3.org/1999/xlink" x="0px"
	 y="0px" viewBox="0 0 15 20" style="enable-background:new 0 0 15 20;" xml:space="preserve">
<style type="text/css">
	.st0{fill:#FFFFFF;}
</style>
<g id="グループ_10074" transform="translate(1 2)">
	<g id="グループ_10075" transform="translate(-0.5 -1.5)">
		<g id="グループ_10077">
			<path id="パス_44606" class="st0" d="M-0.5,0H9.9618425L14.5,4.4785714V19h-15V0z M9.4328947,1.3571428H0.8157895v16.2857132
				h12.3684216V5.0621428L9.4328947,1.3571428z"/>
			<path id="パス_44607" class="st0" d="M2.9947369,7.655643C3.456243,7.6260304,3.9154613,7.7430224,4.3105264,7.9908576
				c0.3089194,0.2296596,0.4818373,0.6068645,0.4578948,0.998857c0.0059347,0.2131023-0.0368886,0.4246502-0.125,0.6175003
				c-0.0832143,0.1695509-0.2085242,0.3133163-0.3631582,0.4166431c-0.1765213,0.113205-0.3719704,0.1914492-0.5763156,0.2307138
				c-0.2517242,0.0512018-0.5079224,0.0753069-0.7644737,0.071929H2.4842107v1.5512133H1.9184211V7.7601428
				c0.1758541-0.0435057,0.3550335-0.0712042,0.5355264-0.0827851c0.1960526-0.0122142,0.3763158-0.0217142,0.5407896-0.0217142
				 M3.0407898,8.168643c-0.2407897,0-0.426316,0-0.555263,0.017643v1.6407852h0.4276316
				C3.0893793,9.8283005,3.2654028,9.814683,3.4394743,9.7863569c0.1385257-0.019927,0.2723246-0.0659275,0.3947368-0.1357145
				c0.1045461-0.0587187,0.190439-0.1473112,0.2473686-0.2551432c0.0634332-0.1288681,0.094214-0.2721996,0.0894737-0.4166431
				c0.0048513-0.138113-0.0265136-0.2750196-0.0907898-0.3962851C4.0200052,8.4788837,3.9353812,8.3925333,3.8342111,8.3314991
				c-0.1110177-0.065424-0.2327979-0.1091337-0.3592105-0.1289282c-0.1429944-0.0251446-0.2878389-0.037405-0.4328947-0.0366421"/>
			<path id="パス_44608" class="st0" d="M8.7960529,9.7849998c0.0075922,0.3245974-0.0474205,0.6475163-0.1618423,0.9499998
				c-0.1009235,0.2557583-0.2591991,0.4831924-0.4618416,0.6636419c-0.2090931,0.1798506-0.4518538,0.3133612-0.7131581,0.3922148
				c-0.2958274,0.0912218-0.6030793,0.1369514-0.9118419,0.1357145c-0.1644735,0-0.3434215-0.0095005-0.5407891-0.0217142
				c-0.1804929-0.0115814-0.3596725-0.0392799-0.5355263-0.0827856V7.7587862
				c0.1759005-0.0430083,0.3550758-0.0702529,0.5355263-0.0814285c0.196053-0.0135717,0.3763161-0.0217142,0.5407896-0.0217142
				c0.308763-0.0012374,0.616015,0.0444927,0.9118419,0.1357141C7.7206173,7.8685942,7.9635162,8.001256,8.172369,8.1808577
				c0.201911,0.181139,0.3600521,0.4083796,0.4618425,0.6636429C8.7486334,9.1469841,8.8036461,9.469903,8.7960539,9.7945004
				 M6.5934215,11.4013577c0.4412241,0.036129,0.8772039-0.1181879,1.2039475-0.4261436
				c0.2794008-0.3270464,0.4213934-0.7551813,0.3947372-1.1902142C8.2184706,9.350008,8.0765152,8.9219856,7.797369,8.5947866
				C7.4700007,8.2880363,7.0343552,8.1343279,6.5934215,8.1700001c-0.1592102,0-0.2842107,0-0.3710527,0.0067863
				C6.1355267,8.1835718,6.0736847,8.186286,6.0381584,8.1890001v3.1933565l0.1842103,0.0122147
				c0.0868421,0,0.2118416,0,0.3710527,0"/>
			<path id="パス_44609" class="st0" d="M9.6394739,11.8763571V7.6990714h2.4434214v0.4994292h-1.8776321v1.2607851h1.6657896
				v0.4939995h-1.6657896v1.9230719H9.6394739z"/>
		</g>
	</g>
</g>
</svg>
