<?xml version="1.0" encoding="utf-8"?>
<!-- Generator: Adobe Illustrator 26.3.1, SVG Export Plug-In . SVG Version: 6.00 Build 0)  -->
<svg version="1.1" id="_x32_" xmlns="http://www.w3.org/2000/svg" xmlns:xlink="http://www.w3.org/1999/xlink" x="0px" y="0px"
	 viewBox="0 0 394 513" style="enable-background:new 0 0 394 513;" xml:space="preserve">
<style type="text/css">
	.st0{fill:#4B4B4B;}
</style>
<g>
	<path class="st0" d="M35.8,22.7C0.6,45.5-6.3,116.8,7,175c10.3,45.3,32.3,106,69.4,163.2c34.9,53.8,83.6,102,120.7,129.9
		c47.7,35.8,115.6,58.6,150.8,35.8c17.8-11.5,44.2-43.1,45.4-48.7c0,0-15.5-23.9-18.9-29.1l-52-80.1c-3.9-6-28.1-0.5-40.4,6.5
		c-16.6,9.4-31.9,34.6-31.9,34.6c-11.4,6.6-20.9,0-40.8-9.1c-24.5-11.3-52-46.3-73.9-77.9c-20-32.9-40.7-72.3-41-99.3
		c-0.2-21.9-2.3-33.3,8.3-41c0,0,29.3-3.7,44.6-15c11.4-8.4,26.2-28.3,22.4-34.2l-52-80.1C114.3,25,98.8,1.1,98.8,1.1
		C93.2-0.1,53.6,11.2,35.8,22.7z"/>
</g>
</svg>
