<?xml version="1.0" encoding="utf-8"?>
<!-- Generator: Adobe Illustrator 25.2.1, SVG Export Plug-In . SVG Version: 6.00 Build 0)  -->
<svg version="1.1" xmlns="http://www.w3.org/2000/svg" xmlns:xlink="http://www.w3.org/1999/xlink" x="0px" y="0px"
	 viewBox="0 0 202 48" style="enable-background:new 0 0 202 48;" xml:space="preserve">
<style type="text/css">
	.st0{fill:#00C7D0;}
	.st1{fill:none;stroke:#00C7D0;stroke-miterlimit:10;}
	.st2{fill:#333333;}
</style>
<g id="レイヤー_1">
</g>
<g id="ガイド">
	<g>
		<g>
			<path class="st0" d="M4387.5,41v3769h-1138V41H4387.5 M4388.5,40h-1140v3771h1140V40L4388.5,40z"/>
		</g>
		<g>
			<line class="st1" x1="3343" y1="40" x2="3343" y2="3811"/>
			<line class="st1" x1="4293" y1="3811" x2="4293" y2="40"/>
			<line class="st1" x1="4293" y1="40" x2="4293" y2="3811"/>
			<line class="st1" x1="4198" y1="3811" x2="4198" y2="40"/>
			<line class="st1" x1="4008" y1="3811" x2="4008" y2="40"/>
			<line class="st1" x1="4103" y1="40" x2="4103" y2="3811"/>
			<line class="st1" x1="3913" y1="40" x2="3913" y2="3811"/>
			<line class="st1" x1="3818" y1="3811" x2="3818" y2="40"/>
			<line class="st1" x1="3533" y1="40" x2="3533" y2="3811"/>
			<line class="st1" x1="3438" y1="3811" x2="3438" y2="40"/>
			<line class="st1" x1="3628" y1="3811" x2="3628" y2="40"/>
			<line class="st1" x1="3723" y1="40" x2="3723" y2="3811"/>
		</g>
	</g>
	<g>
		<g>
			<g>
				<g>
					<path class="st2" d="M40.9,7.3c-7-7-17.3-8.6-25.8-4.9c18.4,0.4,8.6,24.8-5.5,8c3.8,14.2-7.8,20.9-6.8,4.5
						C-0.7,23.4,1,33.5,7.8,40.4c9.1,9.1,23.9,9.1,33,0C50,31.3,50,16.5,40.9,7.3z"/>
				</g>
			</g>
		</g>
		<g>
			<path class="st2" d="M78.2,15.2c-0.2,0.3-0.4,0.6-0.7,0.8c-0.2,0.2-0.5,0.3-0.9,0.3c-0.3,0-0.7-0.1-1-0.3
				c-0.4-0.2-0.8-0.4-1.3-0.7c-0.5-0.3-1-0.5-1.6-0.7c-0.6-0.2-1.3-0.3-2.1-0.3c-1.3,0-2.3,0.3-3,0.9s-1,1.3-1,2.3
				c0,0.6,0.2,1.1,0.6,1.5c0.4,0.4,0.9,0.8,1.5,1c0.6,0.3,1.4,0.6,2.2,0.8c0.8,0.2,1.7,0.5,2.5,0.8s1.7,0.7,2.5,1.1
				c0.8,0.4,1.5,0.9,2.2,1.6s1.2,1.4,1.5,2.3c0.4,0.9,0.6,2,0.6,3.3c0,1.4-0.2,2.7-0.7,4C79.2,35,78.5,36,77.5,37s-2.1,1.6-3.4,2.2
				c-1.4,0.5-2.9,0.8-4.7,0.8c-1,0-1.9-0.1-2.9-0.3c-1-0.2-1.9-0.5-2.9-0.8c-0.9-0.4-1.8-0.8-2.6-1.3c-0.8-0.5-1.5-1-2.1-1.6
				l2.1-3.3c0.2-0.2,0.4-0.4,0.7-0.6c0.3-0.2,0.6-0.2,0.9-0.2c0.4,0,0.8,0.1,1.3,0.4c0.4,0.3,0.9,0.6,1.4,0.9
				c0.5,0.3,1.2,0.6,1.9,0.9c0.7,0.3,1.5,0.4,2.5,0.4c1.3,0,2.3-0.3,3-0.9c0.7-0.6,1.1-1.5,1.1-2.7c0-0.7-0.2-1.3-0.6-1.7
				c-0.4-0.4-0.9-0.8-1.5-1.1c-0.6-0.3-1.4-0.6-2.2-0.8c-0.8-0.2-1.6-0.5-2.5-0.7c-0.9-0.3-1.7-0.6-2.5-1c-0.8-0.4-1.5-0.9-2.2-1.6
				c-0.6-0.7-1.2-1.5-1.5-2.4c-0.4-1-0.6-2.2-0.6-3.6c0-1.1,0.2-2.3,0.7-3.4c0.5-1.1,1.1-2.1,2-2.9c0.9-0.9,2-1.5,3.3-2
				c1.3-0.5,2.8-0.8,4.5-0.8c0.9,0,1.9,0.1,2.7,0.2c0.9,0.1,1.7,0.4,2.5,0.7c0.8,0.3,1.5,0.6,2.2,1c0.7,0.4,1.3,0.9,1.9,1.4
				L78.2,15.2z"/>
			<path class="st2" d="M84.4,20.8c1.3-1.2,2.8-2,4.4-2.6c1.6-0.6,3.3-0.9,5.2-0.9c1.3,0,2.5,0.2,3.6,0.6c1.1,0.4,2,1,2.7,1.8
				c0.7,0.8,1.3,1.7,1.7,2.7c0.4,1.1,0.6,2.2,0.6,3.4v13.6h-3c-0.6,0-1.1-0.1-1.4-0.3c-0.3-0.2-0.6-0.5-0.8-1.1l-0.5-1.2
				c-0.5,0.5-1.1,0.9-1.6,1.2c-0.5,0.3-1,0.6-1.6,0.9c-0.5,0.2-1.1,0.4-1.7,0.5c-0.6,0.1-1.3,0.2-2,0.2c-1,0-1.9-0.1-2.7-0.4
				c-0.8-0.3-1.5-0.6-2.1-1.1s-1-1.1-1.3-1.9s-0.5-1.6-0.5-2.6c0-0.8,0.2-1.6,0.6-2.4c0.4-0.8,1.1-1.5,2-2.2c1-0.7,2.3-1.2,3.9-1.7
				c1.6-0.4,3.7-0.7,6.2-0.8V26c0-1.3-0.3-2.2-0.8-2.8c-0.5-0.6-1.3-0.9-2.2-0.9c-0.8,0-1.4,0.1-1.9,0.3c-0.5,0.2-0.9,0.4-1.3,0.6
				c-0.4,0.2-0.8,0.4-1.1,0.6C88.4,23.9,88,24,87.5,24c-0.4,0-0.8-0.1-1.1-0.3c-0.3-0.2-0.6-0.5-0.8-0.8L84.4,20.8z M96.1,30.7
				c-1.3,0.1-2.4,0.2-3.2,0.3c-0.8,0.2-1.5,0.4-2,0.6c-0.5,0.3-0.8,0.5-1,0.9c-0.2,0.3-0.3,0.7-0.3,1c0,0.7,0.2,1.3,0.6,1.6
				c0.4,0.3,1,0.5,1.8,0.5c0.8,0,1.6-0.1,2.2-0.4c0.6-0.3,1.3-0.8,1.9-1.4V30.7z"/>
			<path class="st2" d="M107.7,39.6V17.8h4c0.8,0,1.3,0.4,1.6,1.1l0.4,1.2c0.4-0.4,0.7-0.7,1.1-1c0.4-0.3,0.8-0.6,1.3-0.8
				c0.5-0.2,0.9-0.4,1.5-0.5c0.5-0.1,1.1-0.2,1.7-0.2c1.3,0,2.4,0.3,3.3,1c0.9,0.7,1.5,1.6,2,2.7c0.4-0.7,0.8-1.2,1.3-1.7
				c0.5-0.5,1.1-0.9,1.7-1.2c0.6-0.3,1.3-0.5,1.9-0.7c0.7-0.1,1.4-0.2,2-0.2c1.2,0,2.4,0.2,3.3,0.6c1,0.4,1.8,0.9,2.4,1.6
				c0.7,0.7,1.1,1.6,1.5,2.6c0.3,1,0.5,2.2,0.5,3.5v13.8h-6.5V25.7c0-2.3-1-3.4-2.9-3.4c-0.9,0-1.6,0.3-2.2,0.9
				c-0.6,0.6-0.9,1.4-0.9,2.5v13.8h-6.5V25.7c0-1.2-0.2-2.1-0.7-2.6s-1.2-0.8-2.2-0.8c-0.6,0-1.1,0.1-1.7,0.4
				c-0.5,0.3-1,0.6-1.5,1.1v15.7H107.7z"/>
			<path class="st2" d="M150.6,20.5c0.9-0.9,1.8-1.7,2.9-2.2c1.1-0.6,2.4-0.9,3.9-0.9c1.1,0,2.2,0.3,3.1,0.8c1,0.5,1.8,1.2,2.5,2.2
				c0.7,1,1.2,2.1,1.6,3.5c0.4,1.4,0.6,2.9,0.6,4.7c0,1.6-0.2,3.1-0.7,4.5c-0.5,1.4-1.1,2.6-1.9,3.6c-0.8,1-1.8,1.8-2.9,2.4
				c-1.1,0.6-2.4,0.9-3.8,0.9c-1.1,0-2.1-0.2-2.9-0.5s-1.5-0.8-2.1-1.3v8.4h-6.5V17.8h4c0.8,0,1.3,0.4,1.6,1.1L150.6,20.5z
				 M151,33.6c0.5,0.5,1,0.9,1.6,1.1s1.2,0.3,1.8,0.3c0.6,0,1.2-0.1,1.7-0.4c0.5-0.2,0.9-0.6,1.3-1.1c0.4-0.5,0.7-1.2,0.9-2
				c0.2-0.8,0.3-1.9,0.3-3.1c0-1.1-0.1-2.1-0.3-2.9c-0.2-0.8-0.4-1.4-0.7-1.9c-0.3-0.5-0.7-0.8-1.1-1c-0.4-0.2-0.9-0.3-1.4-0.3
				c-1,0-1.7,0.2-2.4,0.5c-0.6,0.4-1.2,0.9-1.8,1.5V33.6z"/>
			<path class="st2" d="M176.2,8.1v31.4h-6.5V8.1H176.2z"/>
			<path class="st2" d="M187,29.8c0.2,1.8,0.8,3.1,1.7,4c0.9,0.8,2.1,1.2,3.5,1.2c0.8,0,1.4-0.1,2-0.3c0.5-0.2,1-0.4,1.5-0.6
				c0.4-0.2,0.8-0.4,1.2-0.6c0.4-0.2,0.7-0.3,1.1-0.3c0.5,0,0.9,0.2,1.2,0.6l1.9,2.3c-0.7,0.8-1.4,1.4-2.2,1.9
				c-0.8,0.5-1.6,0.9-2.4,1.1c-0.8,0.3-1.6,0.5-2.5,0.6c-0.8,0.1-1.6,0.2-2.3,0.2c-1.5,0-3-0.2-4.3-0.7c-1.3-0.5-2.5-1.2-3.5-2.2
				c-1-1-1.8-2.2-2.4-3.7c-0.6-1.5-0.9-3.1-0.9-5.1c0-1.5,0.2-2.8,0.7-4.1c0.5-1.3,1.2-2.4,2.1-3.4c0.9-1,2.1-1.8,3.4-2.3
				c1.3-0.6,2.8-0.9,4.5-0.9c1.4,0,2.8,0.2,4,0.7c1.2,0.4,2.2,1.1,3.1,2c0.9,0.9,1.5,1.9,2,3.1c0.5,1.2,0.7,2.6,0.7,4.2
				c0,0.5,0,0.9-0.1,1.2c0,0.3-0.1,0.6-0.2,0.7c-0.1,0.2-0.3,0.3-0.5,0.4c-0.2,0.1-0.4,0.1-0.7,0.1H187z M195.2,26.1
				c0-0.5-0.1-1-0.2-1.5c-0.1-0.5-0.3-0.9-0.7-1.3c-0.3-0.4-0.7-0.7-1.2-0.9c-0.5-0.2-1.1-0.4-1.8-0.4c-1.2,0-2.2,0.4-2.9,1.1
				c-0.7,0.7-1.2,1.7-1.4,3.1H195.2z"/>
		</g>
	</g>
</g>
</svg>
