<?xml version="1.0" encoding="utf-8"?>
<!-- Generator: Adobe Illustrator 26.0.2, SVG Export Plug-In . SVG Version: 6.00 Build 0)  -->
<svg version="1.1" id="レイヤー_1" xmlns="http://www.w3.org/2000/svg" xmlns:xlink="http://www.w3.org/1999/xlink" x="0px"
	 y="0px" viewBox="0 0 19 19" style="enable-background:new 0 0 19 19;" xml:space="preserve">
<path id="Search" d="M18.247,17.026l-3.857-3.857c2.69-3.364,2.143-8.271-1.221-10.961S4.898,0.065,2.208,3.429
	s-2.143,8.271,1.221,10.961c2.846,2.275,6.888,2.277,9.735,0.004l3.857,3.857c0.338,0.338,0.887,0.339,1.225,0.001
	C18.584,17.913,18.585,17.364,18.247,17.026C18.247,17.026,18.247,17.026,18.247,17.026z M8.296,14.366
	c-3.349,0-6.065-2.715-6.065-6.065s2.715-6.065,6.065-6.065s6.065,2.715,6.065,6.065S11.646,14.366,8.296,14.366L8.296,14.366z"/>
</svg>
