<svg xmlns="http://www.w3.org/2000/svg" width="23.61" height="23.643" viewBox="0 0 23.61 23.643">
  <g id="グループ_9314" data-name="グループ 9314" transform="translate(-436.991 -4133.357)">
    <path id="パス_51349" data-name="パス 51349" d="M29.342,23.536v3.258a2.172,2.172,0,0,1-2.163,2.181q-.1,0-.2-.009A21.492,21.492,0,0,1,17.6,25.632a21.182,21.182,0,0,1-6.516-6.516A21.5,21.5,0,0,1,7.752,9.7,2.172,2.172,0,0,1,9.72,7.342c.064-.006.129-.009.193-.009h3.258A2.172,2.172,0,0,1,15.343,9.2a13.96,13.96,0,0,0,.76,3.052,2.172,2.172,0,0,1-.489,2.292l-1.379,1.379a17.381,17.381,0,0,0,6.516,6.516l1.379-1.379a2.172,2.172,0,0,1,2.292-.489,13.96,13.96,0,0,0,3.052.76A2.172,2.172,0,0,1,29.342,23.536Z" transform="translate(430.257 4127.024)" fill="none" stroke="#0b71c7" stroke-linecap="round" stroke-linejoin="round" stroke-width="2"/>
  </g>
</svg>
