<svg xmlns="http://www.w3.org/2000/svg" xmlns:xlink="http://www.w3.org/1999/xlink" width="140" height="140" viewBox="0 0 140 140">
  <defs>
    <clipPath id="clip-path">
      <rect id="長方形_27924" data-name="長方形 27924" width="94.352" height="82.962" transform="translate(0 0)" fill="none"/>
    </clipPath>
  </defs>
  <g id="グループ_22250" data-name="グループ 22250" transform="translate(-470 -1919)">
    <circle id="楕円形_3" data-name="楕円形 3" cx="70" cy="70" r="70" transform="translate(470 1919)" fill="#0a71c7"/>
    <g id="グループ_22252" data-name="グループ 22252" transform="translate(492.824 1947.519)">
      <g id="グループ_22251" data-name="グループ 22251" clip-path="url(#clip-path)">
        <path id="パス_51411" data-name="パス 51411" d="M43.472,62.868V56.624c-.113-27.85-11.1-26.582-21.24-26.582S1.105,28.774.992,56.624v6.244" fill="#fff" stroke="#0b71c7" stroke-width="1"/>
        <path id="パス_51412" data-name="パス 51412" d="M43.472,62.868V56.624c-.113-27.85-11.1-26.582-21.24-26.582S1.105,28.774.992,56.624v6.244" fill="none" stroke="#0b71c7" stroke-linecap="round" stroke-linejoin="round" stroke-width="1.984"/>
        <path id="パス_51413" data-name="パス 51413" d="M32.165,19.152a9.933,9.933,0,1,1-9.933-9.933,9.933,9.933,0,0,1,9.933,9.933" fill="#fff" stroke="#0b71c7" stroke-width="1"/>
        <circle id="楕円形_4" data-name="楕円形 4" cx="9.933" cy="9.933" r="9.933" transform="translate(12.299 9.219)" fill="none" stroke="#0b71c7" stroke-linecap="round" stroke-linejoin="round" stroke-width="1.984"/>
        <line id="線_1194" data-name="線 1194" y2="16.012" transform="translate(9.417 46.857)" fill="#fff"/>
        <line id="線_1195" data-name="線 1195" y2="16.012" transform="translate(9.417 46.857)" fill="none" stroke="#0b71c7" stroke-linecap="round" stroke-linejoin="round" stroke-width="1.984"/>
        <line id="線_1196" data-name="線 1196" y2="16.012" transform="translate(34.288 46.857)" fill="#fff"/>
        <line id="線_1197" data-name="線 1197" y2="16.012" transform="translate(34.288 46.857)" fill="none" stroke="#1a1311" stroke-linecap="round" stroke-linejoin="round" stroke-width="1.984"/>
        <path id="パス_51414" data-name="パス 51414" d="M93.36,62.32V56.077c-.113-27.851-11.1-26.583-21.24-26.583S50.993,28.226,50.88,56.076V62.32" fill="#fff" stroke="#0b71c7" stroke-width="1"/>
        <path id="パス_51415" data-name="パス 51415" d="M93.36,62.32V56.077c-.113-27.851-11.1-26.583-21.24-26.583S50.993,28.226,50.88,56.076V62.32" fill="none" stroke="#0b71c7" stroke-linecap="round" stroke-linejoin="round" stroke-width="1.984"/>
        <path id="パス_51416" data-name="パス 51416" d="M82.053,18.6A9.933,9.933,0,1,1,72.12,8.671,9.932,9.932,0,0,1,82.053,18.6" fill="#ffd893"/>
        <circle id="楕円形_5" data-name="楕円形 5" cx="9.933" cy="9.933" r="9.933" transform="translate(62.187 8.671)" fill="#fff" stroke="#0b71c7" stroke-linecap="round" stroke-linejoin="round" stroke-width="1.984"/>
        <line id="線_1198" data-name="線 1198" y2="16.011" transform="translate(59.305 46.309)" fill="#fff"/>
        <line id="線_1199" data-name="線 1199" y2="16.011" transform="translate(59.305 46.309)" fill="none" stroke="#1a1311" stroke-linecap="round" stroke-linejoin="round" stroke-width="1.984"/>
        <line id="線_1200" data-name="線 1200" y2="16.011" transform="translate(84.175 46.309)" fill="#fff"/>
        <line id="線_1201" data-name="線 1201" y2="16.011" transform="translate(84.175 46.309)" fill="none" stroke="#0b71c7" stroke-linecap="round" stroke-linejoin="round" stroke-width="1.984"/>
        <path id="パス_51417" data-name="パス 51417" d="M73.617,81.97V75.654c-.141-34.814-13.878-33.228-26.55-33.228S20.658,40.84,20.517,75.654V81.97" fill="#fff" stroke="#0b71c7" stroke-width="1"/>
        <path id="パス_51418" data-name="パス 51418" d="M73.617,81.97V75.654c-.141-34.814-13.878-33.228-26.55-33.228S20.658,40.84,20.517,75.654V81.97" fill="none" stroke="#0b71c7" stroke-linecap="round" stroke-linejoin="round" stroke-width="1.984"/>
        <path id="パス_51419" data-name="パス 51419" d="M59.483,28.813A12.417,12.417,0,1,1,47.067,16.4,12.416,12.416,0,0,1,59.483,28.813" fill="#fff" stroke="#0b71c7" stroke-width="1"/>
        <path id="パス_51420" data-name="パス 51420" d="M59.483,28.813A12.417,12.417,0,1,1,47.067,16.4,12.416,12.416,0,0,1,59.483,28.813Z" fill="none" stroke="#0b71c7" stroke-linecap="round" stroke-linejoin="round" stroke-width="1.984"/>
        <line id="線_1202" data-name="線 1202" y2="18.526" transform="translate(31.048 63.444)" fill="#fff"/>
        <line id="線_1203" data-name="線 1203" y2="18.526" transform="translate(31.048 63.444)" fill="none" stroke="#0b71c7" stroke-linecap="round" stroke-linejoin="round" stroke-width="1.984"/>
        <line id="線_1204" data-name="線 1204" y2="18.526" transform="translate(62.136 63.444)" fill="#fff"/>
        <line id="線_1205" data-name="線 1205" y2="18.526" transform="translate(62.136 63.444)" fill="none" stroke="#0b71c7" stroke-linecap="round" stroke-linejoin="round" stroke-width="1.984"/>
        <path id="パス_51421" data-name="パス 51421" d="M3.43,80.575c2.818-2.818,2.818-6.261,0-9.079,2.818,2.818,6.261,2.818,9.079,0-2.818,2.818-2.818,6.261,0,9.079-2.818-2.818-6.261-2.818-9.079,0" fill="#fff"/>
        <path id="パス_51422" data-name="パス 51422" d="M42.459,10.071c2.818-2.817,2.818-6.261,0-9.079,2.818,2.818,6.261,2.818,9.079,0-2.818,2.818-2.818,6.262,0,9.079-2.818-2.817-6.261-2.817-9.079,0" fill="#fff"/>
        <path id="パス_51423" data-name="パス 51423" d="M81.625,80.575c2.818-2.818,2.818-6.261,0-9.079,2.818,2.818,6.261,2.818,9.079,0-2.818,2.818-2.818,6.261,0,9.079-2.818-2.818-6.261-2.818-9.079,0" fill="#fff"/>
      </g>
    </g>
  </g>
</svg>
