<svg xmlns="http://www.w3.org/2000/svg" xmlns:xlink="http://www.w3.org/1999/xlink" width="140" height="140" viewBox="0 0 140 140">
  <defs>
    <clipPath id="clip-path">
      <rect id="長方形_27923" data-name="長方形 27923" width="86.919" height="91.911" fill="#fff"/>
    </clipPath>
  </defs>
  <g id="グループ_22246" data-name="グループ 22246" transform="translate(-470 -1919)">
    <circle id="楕円形_3" data-name="楕円形 3" cx="70" cy="70" r="70" transform="translate(470 1919)" fill="#0a71c7"/>
    <g id="グループ_22248" data-name="グループ 22248" transform="translate(496.541 1943.045)">
      <g id="グループ_22247" data-name="グループ 22247" transform="translate(0 0)" clip-path="url(#clip-path)">
        <path id="パス_51389" data-name="パス 51389" d="M7.682,49.224l-2.89,1.893" transform="translate(-0.452 -4.64)" fill="#fff"/>
        <path id="パス_51390" data-name="パス 51390" d="M7.682,49.224l-2.89,1.893" transform="translate(-0.452 -4.64)" fill="#fff" stroke="#fff" stroke-linecap="round" stroke-linejoin="round" stroke-width="1.984"/>
        <path id="パス_51391" data-name="パス 51391" d="M17.069,43.1,14.451,44.81" transform="translate(-1.362 -4.062)" fill="#fff"/>
        <path id="パス_51392" data-name="パス 51392" d="M17.069,43.1,14.451,44.81" transform="translate(-1.362 -4.062)" fill="#fff" stroke="#fff" stroke-linecap="round" stroke-linejoin="round" stroke-width="1.984"/>
        <path id="パス_51393" data-name="パス 51393" d="M39.463,27.571,24.279,37.516" transform="translate(-2.288 -2.599)" fill="#fff"/>
        <path id="パス_51394" data-name="パス 51394" d="M39.463,27.571,24.279,37.516" transform="translate(-2.288 -2.599)" fill="#fff" stroke="#fff" stroke-linecap="round" stroke-linejoin="round" stroke-width="1.984"/>
        <path id="パス_51395" data-name="パス 51395" d="M0,83.647c34.264,0,64.606-10.558,84.184-50.222" transform="translate(0 -3.15)" fill="none" stroke="#fff" stroke-linejoin="round" stroke-width="1.984"/>
        <path id="パス_51396" data-name="パス 51396" d="M56.94,31.978v8.738l-5.023,9.506,3.548,1.323,6.042-9.783,1.74-10.793Z" transform="translate(-4.893 -2.919)" fill="#fff"/>
        <path id="パス_51397" data-name="パス 51397" d="M56.94,31.978v8.738l-5.023,9.506,3.548,1.323,6.042-9.783,1.74-10.793Z" transform="translate(-4.893 -2.919)" fill="#fff" stroke="#0b71c7" stroke-linecap="round" stroke-linejoin="round" stroke-width="1"/>
        <path id="パス_51398" data-name="パス 51398" d="M64.763,18.745l7.683.629,6.289-6.29-2.326-2.326-5.074,4.653L64.763,14.18Z" transform="translate(-6.104 -1.014)" fill="#fff"/>
        <path id="パス_51399" data-name="パス 51399" d="M64.763,18.745l7.683.629,6.289-6.29-2.326-2.326-5.074,4.653L64.763,14.18Z" transform="translate(-6.104 -1.014)" fill="#fff" stroke="#0b71c7" stroke-linecap="round" stroke-linejoin="round" stroke-width="1"/>
        <path id="パス_51400" data-name="パス 51400" d="M63.212,5.147A4.155,4.155,0,1,1,59.058.992a4.155,4.155,0,0,1,4.155,4.155" transform="translate(-5.175 -0.094)" fill="#fff"/>
        <path id="パス_51401" data-name="パス 51401" d="M63.212,5.147A4.155,4.155,0,1,1,59.058.992,4.155,4.155,0,0,1,63.212,5.147Z" transform="translate(-5.175 -0.094)" fill="#fff" stroke="#0b71c7" stroke-linecap="round" stroke-linejoin="round" stroke-width="1"/>
        <path id="パス_51402" data-name="パス 51402" d="M63.445,21.849V20.482c-.041-9.989-.809-9.874-5.043-9.874-3.414,0-8.682,2.218-9.525,3.942s-.557,7.271-.926,10.589h3.361l.97-7.882,2.527-.86v8.742c-.02,2.507.942,4.848,2.948,5.715,3.7,1.6,9.385,0,9.385,0V40.24h3.731l1.2-14.079c0-1.805-2.286-1.685-3.609-1.564s-4.813.533-4.813.533Z" transform="translate(-4.52 -1)" fill="#fff"/>
        <path id="パス_51403" data-name="パス 51403" d="M63.445,21.849V20.482c-.041-9.989-.809-9.874-5.043-9.874-3.414,0-8.682,2.218-9.525,3.942s-.557,7.271-.926,10.589h3.361l.97-7.882,2.527-.86v8.742c-.02,2.507.942,4.848,2.948,5.715,3.7,1.6,9.385,0,9.385,0V40.24h3.731l1.2-14.079c0-1.805-2.286-1.685-3.609-1.564s-4.813.533-4.813.533Z" transform="translate(-4.52 -1)" fill="#fff" stroke="#0b71c7" stroke-linecap="round" stroke-linejoin="round" stroke-width="1"/>
        <rect id="長方形_27915" data-name="長方形 27915" width="8.006" height="31.263" transform="translate(29.017 59.749)" fill="#fff"/>
        <rect id="長方形_27916" data-name="長方形 27916" width="8.006" height="31.263" transform="translate(29.017 59.749)" fill="#fff" stroke="#0b71c7" stroke-linecap="round" stroke-linejoin="round" stroke-width="1.984"/>
        <rect id="長方形_27917" data-name="長方形 27917" width="8.006" height="39.582" transform="translate(45.373 51.43)" fill="#fff"/>
        <rect id="長方形_27918" data-name="長方形 27918" width="8.006" height="39.582" transform="translate(45.373 51.43)" fill="#fff" stroke="#0b71c7" stroke-linecap="round" stroke-linejoin="round" stroke-width="1.984"/>
        <rect id="長方形_27919" data-name="長方形 27919" width="8.006" height="22.944" transform="translate(12.661 68.068)" fill="#fff"/>
        <rect id="長方形_27920" data-name="長方形 27920" width="8.006" height="22.944" transform="translate(12.661 68.068)" fill="#fff" stroke="#0b71c7" stroke-linecap="round" stroke-linejoin="round" stroke-width="1.984"/>
        <rect id="長方形_27921" data-name="長方形 27921" width="8.006" height="47.9" transform="translate(61.729 43.112)" fill="#fff"/>
        <rect id="長方形_27922" data-name="長方形 27922" width="8.006" height="47.9" transform="translate(61.729 43.112)" fill="#fff" stroke="#0b71c7" stroke-linecap="round" stroke-linejoin="round" stroke-width="1.984"/>
        <path id="パス_51404" data-name="パス 51404" d="M81.734,37.228l10.153-3.8,1.85,10.684" transform="translate(-7.704 -3.15)" fill="none" stroke="#fff" stroke-linejoin="round" stroke-width="1.984"/>
        <path id="パス_51405" data-name="パス 51405" d="M13.216,56.47,9.491,58.91" transform="translate(-0.895 -5.323)" fill="#fff"/>
        <path id="パス_51406" data-name="パス 51406" d="M13.216,56.47,9.491,58.91" transform="translate(-0.895 -5.323)" fill="#fff" stroke="#fff" stroke-linecap="round" stroke-linejoin="round" stroke-width="1.984"/>
        <path id="パス_51407" data-name="パス 51407" d="M30.2,44.921,20.213,51.46" transform="translate(-1.905 -4.234)" fill="#fff"/>
        <path id="パス_51408" data-name="パス 51408" d="M30.2,44.921,20.213,51.46" transform="translate(-1.905 -4.234)" fill="#fff" stroke="#fff" stroke-linecap="round" stroke-linejoin="round" stroke-width="1.984"/>
        <path id="パス_51409" data-name="パス 51409" d="M44.976,35.42l-7.357,4.819" transform="translate(-3.546 -3.339)" fill="#fff"/>
        <path id="パス_51410" data-name="パス 51410" d="M44.976,35.42l-7.357,4.819" transform="translate(-3.546 -3.339)" fill="#fff" stroke="#fff" stroke-linecap="round" stroke-linejoin="round" stroke-width="1.984"/>
      </g>
    </g>
  </g>
</svg>
