<?xml version="1.0" encoding="utf-8"?>
<!-- Generator: Adobe Illustrator 25.3.1, SVG Export Plug-In . SVG Version: 6.00 Build 0)  -->
<svg version="1.1" id="_x32_" xmlns="http://www.w3.org/2000/svg" xmlns:xlink="http://www.w3.org/1999/xlink" x="0px" y="0px"
	 viewBox="0 0 512 512" style="enable-background:new 0 0 512 512;" xml:space="preserve">
<style type="text/css">
	.st0{fill:#444444;}
</style>
<g>
	<path class="st0" d="M508.6,93.1c0.3-10.3-6.4-19.3-12.8-27.5c-0.9,10.3-10,27.4-14.3,36.3L318.4,435.3
		c-12.7,25.9-28.4,57.7-63.2,54c-1.3-0.1-232-24.3-232-24.3c6.5,10.3,13.9,23.6,26.8,25l190,20c22,2.4,42.9,5.4,62.7-7.6
		c22-14.4,33.3-40.7,44.3-63.1l154.6-325.4C504.9,107.2,508.3,100.7,508.6,93.1C508.6,92.4,508.6,93,508.6,93.1z"/>
	<path class="st0" d="M239,465c19.2,2.1,42.4-11.5,51.5-30.2l53-108.3L473.5,60.8c9.1-18.7,0.9-35.6-18.3-37.7L241.6,0.2
		c-19.2-2.1-42.4,11.5-51.5,30.2L7.1,404.4C-2,423,6.2,440,25.5,442L239,465z M160.2,411.1c-4.1,8.4-14.6,14.5-23.3,13.6
		c-8.7-0.9-12.3-8.5-8.2-17c4.1-8.4,14.5-14.5,23.2-13.6C160.6,395,164.3,402.7,160.2,411.1z M219.7,48.4L430.1,71L283.6,370.5
		L73.2,347.9L219.7,48.4z"/>
</g>
</svg>
